<svg xmlns="http://www.w3.org/2000/svg" viewBox="0 0 120 120" id="wishlist"><path fill="#f73e3e" d="m104.71,69.5l.29-.29c30.08-29.96-14.49-74.33-44.57-44.38C28.74-6.73-15.82,37.64,15.87,69.21l32.97,32.83c6.06,6.04,15.69,6.36,22.13.96"></path><ellipse cx="87.84" cy="85.56" fill="#a50000" rx="22.63" ry="22.53"></ellipse><polygon fill="#fff" points="99.27 84.28 99.27 89.55 91.34 89.55 91.34 97.45 86.05 97.45 86.05 89.55 78.12 89.55 78.12 84.28 86.05 84.28 86.05 76.38 91.34 76.38 91.34 84.28 99.27 84.28"></polygon><g><path d="m60.44,20.73c-16.96-15.78-36.32-11.29-47.4-.13-11.4,11.47-15.79,31.75,1.49,49.15l32.92,33.14c3.54,3.57,8.27,5.38,13.01,5.38,4.2,0,8.4-1.42,11.79-4.29.07-.06.12-.12.18-.18,4.15,3.56,9.53,5.71,15.41,5.71,13.13,0,23.78-10.72,23.78-23.94,0-5.89-2.12-11.29-5.63-15.46.02-.02.05-.04.07-.06l.29-.29c16.45-16.56,11.67-36.46.27-47.93-11.07-11.14-30.03-16-46.19-1.09Zm27.4,84.74c-10.91,0-19.78-8.93-19.78-19.91s8.87-19.91,19.78-19.91,19.78,8.93,19.78,19.91-8.87,19.91-19.78,19.91Zm15.68-38.57l-.29.29s-.04.05-.06.07c-4.14-3.52-9.49-5.65-15.33-5.65-13.13,0-23.78,10.72-23.78,23.94,0,5.85,2.09,11.21,5.56,15.37-5.65,4.73-14.13,4.35-19.34-.9l-32.92-33.14c-15.33-15.44-11.52-33.35-1.49-43.45,10.03-10.1,27.82-13.94,43.16,1.5.78.79,2.05.79,2.83,0,14.5-14.6,31.91-10.38,41.94-.28,10.04,10.1,14.23,27.63-.27,42.23Zm-4.31,15.62h-6.92v-6.96c0-.56-.45-1.01-1.01-1.01h-5.28c-.56,0-1.01.45-1.01,1.01v6.96h-6.91c-.56,0-1.01.45-1.01,1.01v5.32c0,.56.45,1.01,1.01,1.01h6.91v6.96c0,.56.45,1.01,1.01,1.01h5.28c.56,0,1.01-.45,1.01-1.01v-6.96h6.92c.56,0,1.01-.45,1.01-1.01v-5.32c0-.56-.45-1.01-1.01-1.01Zm-1.01,5.32h-6.92c-.56,0-1.01.45-1.01,1.01v6.96h-3.27v-6.96c0-.56-.45-1.01-1.01-1.01h-6.91v-3.29h6.91c.56,0,1.01-.45,1.01-1.01v-6.96h3.27v6.96c0,.56.45,1.01,1.01,1.01h6.92v3.29Z"></path></g></svg>